<svg width="137" height="61" viewBox="0 0 137 61" fill="none" xmlns="http://www.w3.org/2000/svg">
<path opacity="0.5" d="M64.067 0.410504L48.388 55.9541C48.3082 56.2062 47.9893 56.2819 47.8033 56.1054L37.3064 46.1464L45.1724 18.3115C45.2522 18.0594 45.013 17.8325 44.7472 17.9081L15.4089 25.3711L4.96507 15.4625C4.77905 15.286 4.85878 14.9834 5.12452 14.9078L63.6418 0.00710022C63.9075 -0.0433252 64.1467 0.183589 64.067 0.410504Z" fill="#6400B3"/>
<path opacity="0.5" d="M37.3058 46.1459L33.2665 60.5171C33.1868 60.7693 32.8679 60.8449 32.6818 60.6684L0.101381 29.7828C-0.0846408 29.6063 -0.00491741 29.3038 0.260829 29.2282L15.4084 25.3706L37.3058 46.1459Z" fill="#4F00B3"/>
<path d="M45.1711 18.311L37.305 46.1459L15.4076 25.3706L44.7459 17.9076C45.0117 17.832 45.2508 18.0589 45.1711 18.311Z" fill="#5A00B3"/>
<path d="M85.4453 20.6927V38.8823H81.6974V20.6927H85.4453ZM92.6911 28.4633V31.3866H84.4209V28.4633H92.6911ZM93.5656 20.6927V23.6286H84.4209V20.6927H93.5656ZM101.461 39.1322C100.412 39.1322 99.4706 38.9656 98.6377 38.6324C97.8049 38.291 97.0969 37.8204 96.514 37.2208C95.9393 36.6211 95.4979 35.9257 95.1897 35.1345C94.8816 34.3349 94.7275 33.4854 94.7275 32.5859V32.0862C94.7275 31.0618 94.8732 30.1248 95.1647 29.2753C95.4562 28.4258 95.8727 27.6887 96.414 27.0641C96.9637 26.4394 97.63 25.9605 98.4129 25.6274C99.1957 25.2859 100.079 25.1152 101.061 25.1152C102.019 25.1152 102.869 25.2734 103.61 25.5899C104.351 25.9064 104.972 26.3562 105.471 26.9392C105.979 27.5222 106.362 28.2217 106.621 29.0379C106.879 29.8458 107.008 30.7453 107.008 31.7364V33.2355H96.2641V30.8369H103.472V30.5621C103.472 30.0624 103.381 29.6168 103.198 29.2253C103.023 28.8256 102.756 28.5091 102.398 28.2759C102.04 28.0427 101.582 27.9261 101.024 27.9261C100.549 27.9261 100.141 28.0302 99.7996 28.2384C99.4581 28.4466 99.1791 28.7381 98.9625 29.1129C98.7543 29.4877 98.5961 29.9291 98.4878 30.4371C98.3879 30.9369 98.3379 31.4865 98.3379 32.0862V32.5859C98.3379 33.1273 98.4129 33.627 98.5628 34.0851C98.721 34.5431 98.9417 34.9387 99.2249 35.2719C99.5164 35.605 99.8662 35.8632 100.274 36.0464C100.691 36.2297 101.161 36.3213 101.686 36.3213C102.336 36.3213 102.939 36.1963 103.497 35.9465C104.064 35.6883 104.551 35.301 104.959 34.7847L106.708 36.6836C106.425 37.0917 106.038 37.4831 105.546 37.8579C105.063 38.2327 104.48 38.5408 103.797 38.7824C103.114 39.0156 102.336 39.1322 101.461 39.1322ZM115.278 39.1322C114.229 39.1322 113.288 38.9656 112.455 38.6324C111.622 38.291 110.914 37.8204 110.331 37.2208C109.756 36.6211 109.315 35.9257 109.007 35.1345C108.699 34.3349 108.545 33.4854 108.545 32.5859V32.0862C108.545 31.0618 108.69 30.1248 108.982 29.2753C109.273 28.4258 109.69 27.6887 110.231 27.0641C110.781 26.4394 111.447 25.9605 112.23 25.6274C113.013 25.2859 113.896 25.1152 114.878 25.1152C115.836 25.1152 116.686 25.2734 117.427 25.5899C118.168 25.9064 118.789 26.3562 119.288 26.9392C119.796 27.5222 120.18 28.2217 120.438 29.0379C120.696 29.8458 120.825 30.7453 120.825 31.7364V33.2355H110.081V30.8369H117.29V30.5621C117.29 30.0624 117.198 29.6168 117.015 29.2253C116.84 28.8256 116.573 28.5091 116.215 28.2759C115.857 28.0427 115.399 27.9261 114.841 27.9261C114.366 27.9261 113.958 28.0302 113.617 28.2384C113.275 28.4466 112.996 28.7381 112.78 29.1129C112.571 29.4877 112.413 29.9291 112.305 30.4371C112.205 30.9369 112.155 31.4865 112.155 32.0862V32.5859C112.155 33.1273 112.23 33.627 112.38 34.0851C112.538 34.5431 112.759 34.9387 113.042 35.2719C113.333 35.605 113.683 35.8632 114.091 36.0464C114.508 36.2297 114.978 36.3213 115.503 36.3213C116.153 36.3213 116.757 36.1963 117.315 35.9465C117.881 35.6883 118.368 35.301 118.776 34.7847L120.525 36.6836C120.242 37.0917 119.855 37.4831 119.363 37.8579C118.88 38.2327 118.297 38.5408 117.614 38.7824C116.931 39.0156 116.153 39.1322 115.278 39.1322ZM130.857 35.934V19.6933H134.48V38.8823H131.219L130.857 35.934ZM122.312 32.2861V32.0237C122.312 30.991 122.428 30.054 122.661 29.2128C122.895 28.3633 123.236 27.6346 123.686 27.0266C124.136 26.4186 124.689 25.9481 125.347 25.6149C126.005 25.2818 126.755 25.1152 127.596 25.1152C128.387 25.1152 129.079 25.2818 129.67 25.6149C130.27 25.9481 130.778 26.4228 131.194 27.0391C131.619 27.6471 131.96 28.3675 132.218 29.2004C132.477 30.0249 132.664 30.9285 132.781 31.9113V32.486C132.664 33.4271 132.477 34.3016 132.218 35.1095C131.96 35.9173 131.619 36.6253 131.194 37.2332C130.778 37.8329 130.27 38.2993 129.67 38.6324C129.07 38.9656 128.371 39.1322 127.571 39.1322C126.73 39.1322 125.98 38.9614 125.322 38.62C124.673 38.2785 124.123 37.7996 123.673 37.1833C123.232 36.567 122.895 35.8424 122.661 35.0095C122.428 34.1767 122.312 33.2689 122.312 32.2861ZM125.91 32.0237V32.2861C125.91 32.8441 125.951 33.3646 126.035 33.8477C126.126 34.3307 126.272 34.7597 126.472 35.1345C126.68 35.5009 126.946 35.7882 127.271 35.9965C127.604 36.1963 128.008 36.2963 128.483 36.2963C129.099 36.2963 129.607 36.1589 130.007 35.884C130.407 35.6009 130.711 35.2136 130.919 34.7222C131.136 34.2308 131.261 33.6645 131.294 33.0232V31.3866C131.269 30.8619 131.194 30.3913 131.069 29.9749C130.953 29.5502 130.778 29.1879 130.544 28.888C130.32 28.5882 130.036 28.355 129.695 28.1884C129.362 28.0219 128.966 27.9386 128.508 27.9386C128.042 27.9386 127.642 28.0468 127.309 28.2634C126.976 28.4716 126.705 28.7589 126.497 29.1254C126.297 29.4919 126.147 29.9249 126.047 30.4247C125.955 30.916 125.91 31.4491 125.91 32.0237Z" fill="#E1E1E6"/>
</svg>
